<svg width="13" height="14" viewBox="0 0 13 14" fill="none" xmlns="http://www.w3.org/2000/svg">
<path fill-rule="evenodd" clip-rule="evenodd" d="M5.31243 0H7.68757C7.84005 0 7.97286 8.11509e-08 8.09795 0.0196758C8.34158 0.058706 8.5727 0.154216 8.77281 0.298565C8.97292 0.442914 9.13647 0.632095 9.25038 0.850973C9.30941 0.963405 9.35086 1.08919 9.39935 1.23324L9.47735 1.46865C9.53116 1.6599 9.64822 1.82725 9.80942 1.9434C9.97061 2.05954 10.1664 2.1176 10.3649 2.10811H12.473C12.6127 2.10811 12.7468 2.16363 12.8456 2.26247C12.9445 2.36131 13 2.49536 13 2.63514C13 2.77491 12.9445 2.90896 12.8456 3.0078C12.7468 3.10664 12.6127 3.16216 12.473 3.16216H0.527027C0.387251 3.16216 0.253199 3.10664 0.154363 3.0078C0.0555258 2.90896 0 2.77491 0 2.63514C0 2.49536 0.0555258 2.36131 0.154363 2.26247C0.253199 2.16363 0.387251 2.10811 0.527027 2.10811H2.69838C2.88607 2.10361 3.06739 2.03908 3.21573 1.924C3.36407 1.80892 3.47164 1.64933 3.52265 1.46865L3.60135 1.23324C3.64914 1.08919 3.69059 0.963405 3.74892 0.850973C3.86289 0.63201 4.02655 0.442775 4.22679 0.29842C4.42703 0.154066 4.65829 0.0586034 4.90205 0.0196758C5.02714 8.11509e-08 5.15995 0 5.31173 0M4.39681 2.10811C4.44615 2.01148 4.48729 1.91087 4.51978 1.80735L4.59005 1.59654C4.654 1.4047 4.66876 1.36605 4.68351 1.33795C4.72145 1.26487 4.77598 1.2017 4.84273 1.1535C4.90948 1.1053 4.98659 1.0734 5.06789 1.06038C5.1595 1.05264 5.25149 1.05053 5.34335 1.05405H7.65524C7.85762 1.05405 7.89978 1.05546 7.9307 1.06108C8.01193 1.07403 8.08901 1.10582 8.15575 1.15389C8.2225 1.20197 8.27706 1.265 8.31508 1.33795C8.32984 1.36605 8.34459 1.4047 8.40854 1.59724L8.47881 1.80805L8.50622 1.88676C8.53362 1.96405 8.56595 2.03714 8.60178 2.10811H4.39681Z" fill="black"/>
<path d="M2.22405 4.35676C2.21473 4.21726 2.15038 4.08718 2.04515 3.99513C1.93992 3.90308 1.80244 3.8566 1.66294 3.86592C1.52344 3.87524 1.39336 3.93959 1.30131 4.04482C1.20926 4.15005 1.16278 4.28753 1.1721 4.42703L1.49816 9.31222C1.55788 10.2131 1.60637 10.9411 1.72021 11.5131C1.83897 12.1069 2.03994 12.603 2.45594 12.9916C2.87124 13.3809 3.37999 13.5488 3.9808 13.6268C4.55843 13.7027 5.28783 13.7027 6.19151 13.7027H6.80918C7.71216 13.7027 8.44226 13.7027 9.01989 13.6268C9.61999 13.5488 10.1288 13.3809 10.5448 12.9916C10.96 12.603 11.161 12.1062 11.2798 11.5131C11.3936 10.9418 11.4414 10.2131 11.5018 9.31222L11.8279 4.42703C11.8372 4.28753 11.7907 4.15005 11.6987 4.04482C11.6066 3.93959 11.4765 3.87524 11.337 3.86592C11.1976 3.8566 11.0601 3.90308 10.9548 3.99513C10.8496 4.08718 10.7853 4.21726 10.7759 4.35676L10.4527 9.20541C10.3895 10.1519 10.3445 10.8111 10.2461 11.3065C10.1498 11.7878 10.0163 12.0422 9.82448 12.2221C9.63194 12.402 9.36913 12.5187 8.88286 12.5819C8.38183 12.6472 7.72129 12.6486 6.77194 12.6486H6.22805C5.2794 12.6486 4.61886 12.6472 4.11713 12.5819C3.63086 12.5187 3.36805 12.402 3.17551 12.2221C2.98367 12.0422 2.85016 11.7878 2.75389 11.3072C2.65551 10.8111 2.61053 10.1519 2.54729 9.2047L2.22405 4.35676Z" fill="black"/>
<path d="M4.69053 5.62443C4.82955 5.6105 4.96842 5.65234 5.0766 5.74076C5.18478 5.82918 5.25343 5.95693 5.26745 6.09595L5.6188 9.60946C5.62909 9.74654 5.58541 9.88222 5.49708 9.98756C5.40875 10.0929 5.28275 10.1595 5.14597 10.1733C5.00919 10.1871 4.87245 10.1468 4.76492 10.0612C4.65738 9.97553 4.58757 9.85126 4.57037 9.71487L4.21902 6.20135C4.20508 6.06233 4.24693 5.92346 4.33534 5.81528C4.42376 5.7071 4.55152 5.63845 4.69053 5.62443ZM8.30945 5.62443C8.44833 5.63846 8.57597 5.707 8.66437 5.81503C8.75276 5.92306 8.7947 6.06174 8.78096 6.20065L8.42961 9.71416C8.41219 9.85029 8.34235 9.97426 8.23494 10.0597C8.12754 10.1451 7.99104 10.1853 7.85448 10.1717C7.71791 10.158 7.59206 10.0917 7.50367 9.98667C7.41528 9.88168 7.37134 9.74635 7.38118 9.60946L7.73253 6.09595C7.74656 5.95707 7.8151 5.82943 7.92313 5.74103C8.03116 5.65263 8.17054 5.6107 8.30945 5.62443Z" fill="black"/>
</svg>
