<svg width="14" height="14" viewBox="0 0 14 14" fill="none" xmlns="http://www.w3.org/2000/svg">
<path d="M13.4597 0.489275C13.6663 0.68922 13.8067 0.889145 13.8808 1.08905C13.9603 1.28372 14 1.46524 14 1.6336C14 1.77564 13.9788 1.90454 13.9364 2.02029C13.8994 2.13604 13.8596 2.236 13.8173 2.32017C13.759 2.41487 13.6981 2.50168 13.6345 2.5806C13.6027 2.62269 13.5577 2.67793 13.4994 2.74632C13.4412 2.80946 13.3803 2.87786 13.3167 2.95153L13.126 3.15671C13.0677 3.21983 13.0201 3.27244 12.983 3.31455C12.8982 3.38819 12.8029 3.42501 12.6969 3.42501C12.591 3.42501 12.4903 3.38293 12.395 3.29876L10.7503 1.67303C10.6655 1.58886 10.6232 1.4889 10.6232 1.37315C10.6232 1.26269 10.6629 1.16799 10.7423 1.08905C10.7794 1.05222 10.8271 1.00224 10.8854 0.93912C10.9489 0.87598 11.0151 0.812842 11.084 0.749702C11.1529 0.686563 11.2191 0.62606 11.2826 0.568194C11.3462 0.510328 11.4018 0.462989 11.4495 0.426177C11.5342 0.347237 11.6296 0.276197 11.7355 0.213057C11.8256 0.160444 11.9315 0.113105 12.0533 0.0710399C12.1752 0.0236801 12.3076 0 12.4506 0C12.5989 0 12.7579 0.0368226 12.9274 0.110468C13.0969 0.178861 13.2743 0.30513 13.4597 0.489275ZM11.6879 4.71139L3.89332 12.4532L1.55731 10.133L9.35188 2.39121L11.6879 4.71139ZM0 14L0.794567 11.6877L2.32008 13.2818L0 14Z" fill="black"/>
</svg>
